<?xml version="1.0" encoding="utf-8" standalone="no"?>
<!DOCTYPE svg PUBLIC "-//W3C//DTD SVG 1.1//EN"
  "http://www.w3.org/Graphics/SVG/1.1/DTD/svg11.dtd">
<svg height="432pt" version="1.1" viewBox="0 0 720 432" width="720pt" xmlns="http://www.w3.org/2000/svg" xmlns:xlink="http://www.w3.org/1999/xlink">
 <metadata>
  <rdf:RDF xmlns:cc="http://creativecommons.org/ns#" xmlns:dc="http://purl.org/dc/elements/1.1/" xmlns:rdf="http://www.w3.org/1999/02/22-rdf-syntax-ns#">
   <cc:Work>
    <dc:type rdf:resource="http://purl.org/dc/dcmitype/StillImage"/>
    <dc:date>2024-01-07T10:28:30.518281</dc:date>
    <dc:format>image/svg+xml</dc:format>
    <dc:creator>
     <cc:Agent>
      <dc:title>Matplotlib v3.4.3, https://matplotlib.org/</dc:title>
     </cc:Agent>
    </dc:creator>
   </cc:Work>
  </rdf:RDF>
 </metadata>
 <defs>
  <style type="text/css">*{stroke-linecap:butt;stroke-linejoin:round;}</style>
 </defs>
 <g id="figure_1">
  <g id="patch_1">
   <path d="M 0 432 
L 720 432 
L 720 0 
L 0 0 
z
" style="fill:#ffffff;"/>
  </g>
  <g id="patch_2">
   <path d="M 202.68 384.48 
L 535.32 384.48 
L 535.32 51.84 
L 202.68 51.84 
z
" style="fill:#ffffff;"/>
  </g>
  <g id="pane3d_1">
   <g id="patch_3">
    <path d="M 227.796614 302.461636 
L 337.645206 210.384369 
L 336.118205 77.592489 
L 221.012792 161.591176 
" style="fill:#f2f2f2;opacity:0.5;stroke:#f2f2f2;stroke-linejoin:miter;"/>
   </g>
  </g>
  <g id="pane3d_2">
   <g id="patch_4">
    <path d="M 337.645206 210.384369 
L 513.913001 261.618458 
L 520.203377 124.252714 
L 336.118205 77.592489 
" style="fill:#e6e6e6;opacity:0.5;stroke:#e6e6e6;stroke-linejoin:miter;"/>
   </g>
  </g>
  <g id="pane3d_3">
   <g id="patch_5">
    <path d="M 227.796614 302.461636 
L 414.649086 363.487653 
L 513.913001 261.618458 
L 337.645206 210.384369 
" style="fill:#ececec;opacity:0.5;stroke:#ececec;stroke-linejoin:miter;"/>
   </g>
  </g>
  <g id="axis3d_1">
   <g id="line2d_1">
    <path d="M 227.796614 302.461636 
L 414.649086 363.487653 
" style="fill:none;stroke:#1a1a1a;stroke-linecap:square;"/>
   </g>
   <g id="Line3DCollection_1">
    <path d="M 250.276464 309.803555 
L 358.934135 216.57222 
L 358.310053 83.217475 
" style="fill:none;stroke:#b0b0b0;stroke-dasharray:2.22,0.96;stroke-dashoffset:0;stroke-width:0.6;"/>
    <path d="M 280.657062 319.725859 
L 387.669284 224.924393 
L 388.28187 90.814457 
" style="fill:none;stroke:#b0b0b0;stroke-dasharray:2.22,0.96;stroke-dashoffset:0;stroke-width:0.6;"/>
    <path d="M 311.573886 329.823293 
L 416.869252 233.411671 
L 418.759642 98.539684 
" style="fill:none;stroke:#b0b0b0;stroke-dasharray:2.22,0.96;stroke-dashoffset:0;stroke-width:0.6;"/>
    <path d="M 343.041259 340.100537 
L 446.54541 242.037359 
L 449.756289 106.39643 
" style="fill:none;stroke:#b0b0b0;stroke-dasharray:2.22,0.96;stroke-dashoffset:0;stroke-width:0.6;"/>
    <path d="M 375.074018 350.562436 
L 476.709503 250.80487 
L 481.285176 114.388084 
" style="fill:none;stroke:#b0b0b0;stroke-dasharray:2.22,0.96;stroke-dashoffset:0;stroke-width:0.6;"/>
    <path d="M 407.68754 361.214012 
L 507.373664 259.717731 
L 513.360129 122.51815 
" style="fill:none;stroke:#b0b0b0;stroke-dasharray:2.22,0.96;stroke-dashoffset:0;stroke-width:0.6;"/>
   </g>
   <g id="xtick_1">
    <g id="line2d_2">
     <path clip-path="url(#p71866a7a34)" d="M 373.495135 213.664865 
" style="fill:none;stroke:#b0b0b0;stroke-dasharray:2.22,0.96;stroke-dashoffset:0;stroke-opacity:0.7;stroke-width:0.6;"/>
    </g>
    <g id="line2d_3">
     <path d="M 251.222897 308.991489 
L 248.379524 311.431183 
" style="fill:none;stroke:#1a1a1a;stroke-linecap:square;stroke-width:0.8;"/>
    </g>
    <g id="text_1">
     <!-- −2 -->
     <g style="fill:#1a1a1a;" transform="translate(233.916641 334.682365)scale(0.12 -0.12)">
      <defs>
       <path d="M 678 2272 
L 4684 2272 
L 4684 1741 
L 678 1741 
L 678 2272 
z
" id="DejaVuSans-2212" transform="scale(0.015625)"/>
       <path d="M 1228 531 
L 3431 531 
L 3431 0 
L 469 0 
L 469 531 
Q 828 903 1448 1529 
Q 2069 2156 2228 2338 
Q 2531 2678 2651 2914 
Q 2772 3150 2772 3378 
Q 2772 3750 2511 3984 
Q 2250 4219 1831 4219 
Q 1534 4219 1204 4116 
Q 875 4013 500 3803 
L 500 4441 
Q 881 4594 1212 4672 
Q 1544 4750 1819 4750 
Q 2544 4750 2975 4387 
Q 3406 4025 3406 3419 
Q 3406 3131 3298 2873 
Q 3191 2616 2906 2266 
Q 2828 2175 2409 1742 
Q 1991 1309 1228 531 
z
" id="DejaVuSans-32" transform="scale(0.015625)"/>
      </defs>
      <use xlink:href="#DejaVuSans-2212"/>
      <use x="83.789062" xlink:href="#DejaVuSans-32"/>
     </g>
    </g>
   </g>
   <g id="xtick_2">
    <g id="line2d_4">
     <path clip-path="url(#p71866a7a34)" d="M 373.495135 213.664865 
" style="fill:none;stroke:#b0b0b0;stroke-dasharray:2.22,0.96;stroke-dashoffset:0;stroke-opacity:0.7;stroke-width:0.6;"/>
    </g>
    <g id="line2d_5">
     <path d="M 281.589827 318.899528 
L 278.787482 321.382108 
" style="fill:none;stroke:#1a1a1a;stroke-linecap:square;stroke-width:0.8;"/>
    </g>
    <g id="text_2">
     <!-- −1 -->
     <g style="fill:#1a1a1a;" transform="translate(264.322671 344.772797)scale(0.12 -0.12)">
      <defs>
       <path d="M 794 531 
L 1825 531 
L 1825 4091 
L 703 3866 
L 703 4441 
L 1819 4666 
L 2450 4666 
L 2450 531 
L 3481 531 
L 3481 0 
L 794 0 
L 794 531 
z
" id="DejaVuSans-31" transform="scale(0.015625)"/>
      </defs>
      <use xlink:href="#DejaVuSans-2212"/>
      <use x="83.789062" xlink:href="#DejaVuSans-31"/>
     </g>
    </g>
   </g>
   <g id="xtick_3">
    <g id="line2d_6">
     <path clip-path="url(#p71866a7a34)" d="M 373.495135 213.664865 
" style="fill:none;stroke:#b0b0b0;stroke-dasharray:2.22,0.96;stroke-dashoffset:0;stroke-opacity:0.7;stroke-width:0.6;"/>
    </g>
    <g id="line2d_7">
     <path d="M 312.492351 328.982319 
L 309.732932 331.508927 
" style="fill:none;stroke:#1a1a1a;stroke-linecap:square;stroke-width:0.8;"/>
    </g>
    <g id="text_3">
     <!-- 0 -->
     <g style="fill:#1a1a1a;" transform="translate(300.294816 355.041867)scale(0.12 -0.12)">
      <defs>
       <path d="M 2034 4250 
Q 1547 4250 1301 3770 
Q 1056 3291 1056 2328 
Q 1056 1369 1301 889 
Q 1547 409 2034 409 
Q 2525 409 2770 889 
Q 3016 1369 3016 2328 
Q 3016 3291 2770 3770 
Q 2525 4250 2034 4250 
z
M 2034 4750 
Q 2819 4750 3233 4129 
Q 3647 3509 3647 2328 
Q 3647 1150 3233 529 
Q 2819 -91 2034 -91 
Q 1250 -91 836 529 
Q 422 1150 422 2328 
Q 422 3509 836 4129 
Q 1250 4750 2034 4750 
z
" id="DejaVuSans-30" transform="scale(0.015625)"/>
      </defs>
      <use xlink:href="#DejaVuSans-30"/>
     </g>
    </g>
   </g>
   <g id="xtick_4">
    <g id="line2d_8">
     <path clip-path="url(#p71866a7a34)" d="M 373.495135 213.664865 
" style="fill:none;stroke:#b0b0b0;stroke-dasharray:2.22,0.96;stroke-dashoffset:0;stroke-opacity:0.7;stroke-width:0.6;"/>
    </g>
    <g id="line2d_9">
     <path d="M 343.944765 339.244526 
L 341.230252 341.816343 
" style="fill:none;stroke:#1a1a1a;stroke-linecap:square;stroke-width:0.8;"/>
    </g>
    <g id="text_4">
     <!-- 1 -->
     <g style="fill:#1a1a1a;" transform="translate(331.791874 365.494363)scale(0.12 -0.12)">
      <use xlink:href="#DejaVuSans-31"/>
     </g>
    </g>
   </g>
   <g id="xtick_5">
    <g id="line2d_10">
     <path clip-path="url(#p71866a7a34)" d="M 373.495135 213.664865 
" style="fill:none;stroke:#b0b0b0;stroke-dasharray:2.22,0.96;stroke-dashoffset:0;stroke-opacity:0.7;stroke-width:0.6;"/>
    </g>
    <g id="line2d_11">
     <path d="M 375.961878 349.690981 
L 373.294338 352.309233 
" style="fill:none;stroke:#1a1a1a;stroke-linecap:square;stroke-width:0.8;"/>
    </g>
    <g id="text_5">
     <!-- 2 -->
     <g style="fill:#1a1a1a;" transform="translate(363.8566 376.135243)scale(0.12 -0.12)">
      <use xlink:href="#DejaVuSans-32"/>
     </g>
    </g>
   </g>
   <g id="xtick_6">
    <g id="line2d_12">
     <path clip-path="url(#p71866a7a34)" d="M 373.495135 213.664865 
" style="fill:none;stroke:#b0b0b0;stroke-dasharray:2.22,0.96;stroke-dashoffset:0;stroke-opacity:0.7;stroke-width:0.6;"/>
    </g>
    <g id="line2d_13">
     <path d="M 408.559035 360.326692 
L 405.940628 362.992646 
" style="fill:none;stroke:#1a1a1a;stroke-linecap:square;stroke-width:0.8;"/>
    </g>
    <g id="text_6">
     <!-- 3 -->
     <g style="fill:#1a1a1a;" transform="translate(396.50448 386.969646)scale(0.12 -0.12)">
      <defs>
       <path d="M 2597 2516 
Q 3050 2419 3304 2112 
Q 3559 1806 3559 1356 
Q 3559 666 3084 287 
Q 2609 -91 1734 -91 
Q 1441 -91 1130 -33 
Q 819 25 488 141 
L 488 750 
Q 750 597 1062 519 
Q 1375 441 1716 441 
Q 2309 441 2620 675 
Q 2931 909 2931 1356 
Q 2931 1769 2642 2001 
Q 2353 2234 1838 2234 
L 1294 2234 
L 1294 2753 
L 1863 2753 
Q 2328 2753 2575 2939 
Q 2822 3125 2822 3475 
Q 2822 3834 2567 4026 
Q 2313 4219 1838 4219 
Q 1578 4219 1281 4162 
Q 984 4106 628 3988 
L 628 4550 
Q 988 4650 1302 4700 
Q 1616 4750 1894 4750 
Q 2613 4750 3031 4423 
Q 3450 4097 3450 3541 
Q 3450 3153 3228 2886 
Q 3006 2619 2597 2516 
z
" id="DejaVuSans-33" transform="scale(0.015625)"/>
      </defs>
      <use xlink:href="#DejaVuSans-33"/>
     </g>
    </g>
   </g>
  </g>
  <g id="axis3d_2">
   <g id="line2d_14">
    <path d="M 513.913001 261.618458 
L 414.649086 363.487653 
" style="fill:none;stroke:#1a1a1a;stroke-linecap:square;"/>
   </g>
   <g id="Line3DCollection_2">
    <path d="M 237.78416 149.352196 
L 243.75019 289.089033 
L 429.119914 348.637024 
" style="fill:none;stroke:#b0b0b0;stroke-dasharray:2.22,0.96;stroke-dashoffset:0;stroke-width:0.6;"/>
    <path d="M 263.124831 130.859728 
L 267.888689 268.855664 
L 450.979644 326.203563 
" style="fill:none;stroke:#b0b0b0;stroke-dasharray:2.22,0.96;stroke-dashoffset:0;stroke-width:0.6;"/>
    <path d="M 287.520994 113.05652 
L 291.165627 249.344473 
L 472.018991 304.612018 
" style="fill:none;stroke:#b0b0b0;stroke-dasharray:2.22,0.96;stroke-dashoffset:0;stroke-width:0.6;"/>
    <path d="M 311.024488 95.90474 
L 313.626324 230.517471 
L 492.283286 283.815866 
" style="fill:none;stroke:#b0b0b0;stroke-dasharray:2.22,0.96;stroke-dashoffset:0;stroke-width:0.6;"/>
    <path d="M 333.683429 79.369277 
L 335.312973 212.339292 
L 511.814583 263.771951 
" style="fill:none;stroke:#b0b0b0;stroke-dasharray:2.22,0.96;stroke-dashoffset:0;stroke-width:0.6;"/>
   </g>
   <g id="xtick_7">
    <g id="line2d_15">
     <path clip-path="url(#p71866a7a34)" d="M 373.495135 213.664865 
" style="fill:none;stroke:#b0b0b0;stroke-dasharray:2.22,0.96;stroke-dashoffset:0;stroke-opacity:0.7;stroke-width:0.6;"/>
    </g>
    <g id="line2d_16">
     <path d="M 427.558321 348.135379 
L 432.247113 349.641602 
" style="fill:none;stroke:#1a1a1a;stroke-linecap:square;stroke-width:0.8;"/>
    </g>
    <g id="text_7">
     <!-- −2 -->
     <g style="fill:#1a1a1a;" transform="translate(433.072178 371.084403)scale(0.12 -0.12)">
      <use xlink:href="#DejaVuSans-2212"/>
      <use x="83.789062" xlink:href="#DejaVuSans-32"/>
     </g>
    </g>
   </g>
   <g id="xtick_8">
    <g id="line2d_17">
     <path clip-path="url(#p71866a7a34)" d="M 373.495135 213.664865 
" style="fill:none;stroke:#b0b0b0;stroke-dasharray:2.22,0.96;stroke-dashoffset:0;stroke-opacity:0.7;stroke-width:0.6;"/>
    </g>
    <g id="line2d_18">
     <path d="M 449.438732 325.720918 
L 454.065351 327.170071 
" style="fill:none;stroke:#1a1a1a;stroke-linecap:square;stroke-width:0.8;"/>
    </g>
    <g id="text_8">
     <!-- −1 -->
     <g style="fill:#1a1a1a;" transform="translate(454.69726 348.385451)scale(0.12 -0.12)">
      <use xlink:href="#DejaVuSans-2212"/>
      <use x="83.789062" xlink:href="#DejaVuSans-31"/>
     </g>
    </g>
   </g>
   <g id="xtick_9">
    <g id="line2d_19">
     <path clip-path="url(#p71866a7a34)" d="M 373.495135 213.664865 
" style="fill:none;stroke:#b0b0b0;stroke-dasharray:2.22,0.96;stroke-dashoffset:0;stroke-opacity:0.7;stroke-width:0.6;"/>
    </g>
    <g id="line2d_20">
     <path d="M 470.498322 304.147312 
L 475.064088 305.542579 
" style="fill:none;stroke:#1a1a1a;stroke-linecap:square;stroke-width:0.8;"/>
    </g>
    <g id="text_9">
     <!-- 0 -->
     <g style="fill:#1a1a1a;" transform="translate(480.538206 326.538768)scale(0.12 -0.12)">
      <use xlink:href="#DejaVuSans-30"/>
     </g>
    </g>
   </g>
   <g id="xtick_10">
    <g id="line2d_21">
     <path clip-path="url(#p71866a7a34)" d="M 373.495135 213.664865 
" style="fill:none;stroke:#b0b0b0;stroke-dasharray:2.22,0.96;stroke-dashoffset:0;stroke-opacity:0.7;stroke-width:0.6;"/>
    </g>
    <g id="line2d_22">
     <path d="M 490.782428 283.368118 
L 495.288644 284.712449 
" style="fill:none;stroke:#1a1a1a;stroke-linecap:square;stroke-width:0.8;"/>
    </g>
    <g id="text_10">
     <!-- 1 -->
     <g style="fill:#1a1a1a;" transform="translate(500.584277 305.497239)scale(0.12 -0.12)">
      <use xlink:href="#DejaVuSans-31"/>
     </g>
    </g>
   </g>
   <g id="xtick_11">
    <g id="line2d_23">
     <path clip-path="url(#p71866a7a34)" d="M 373.495135 213.664865 
" style="fill:none;stroke:#b0b0b0;stroke-dasharray:2.22,0.96;stroke-dashoffset:0;stroke-opacity:0.7;stroke-width:0.6;"/>
    </g>
    <g id="line2d_24">
     <path d="M 510.333111 263.340249 
L 514.781057 264.636383 
" style="fill:none;stroke:#1a1a1a;stroke-linecap:square;stroke-width:0.8;"/>
    </g>
    <g id="text_11">
     <!-- 2 -->
     <g style="fill:#1a1a1a;" transform="translate(519.904922 285.217159)scale(0.12 -0.12)">
      <use xlink:href="#DejaVuSans-32"/>
     </g>
    </g>
   </g>
  </g>
  <g id="axis3d_3">
   <g id="line2d_25">
    <path d="M 513.913001 261.618458 
L 520.203377 124.252714 
" style="fill:none;stroke:#1a1a1a;stroke-linecap:square;"/>
   </g>
   <g id="Line3DCollection_3">
    <path d="M 514.515746 248.456035 
L 337.498608 197.635907 
L 227.147577 288.983956 
" style="fill:none;stroke:#b0b0b0;stroke-dasharray:2.22,0.96;stroke-dashoffset:0;stroke-width:0.6;"/>
    <path d="M 515.188405 233.76689 
L 337.335077 183.414832 
L 226.423009 273.937846 
" style="fill:none;stroke:#b0b0b0;stroke-dasharray:2.22,0.96;stroke-dashoffset:0;stroke-width:0.6;"/>
    <path d="M 515.867511 218.936942 
L 337.170054 169.063955 
L 225.691232 258.742009 
" style="fill:none;stroke:#b0b0b0;stroke-dasharray:2.22,0.96;stroke-dashoffset:0;stroke-width:0.6;"/>
    <path d="M 516.553159 203.964154 
L 337.003517 154.581492 
L 224.952135 243.394197 
" style="fill:none;stroke:#b0b0b0;stroke-dasharray:2.22,0.96;stroke-dashoffset:0;stroke-width:0.6;"/>
    <path d="M 517.245442 188.846455 
L 336.835446 139.965624 
L 224.20561 227.89212 
" style="fill:none;stroke:#b0b0b0;stroke-dasharray:2.22,0.96;stroke-dashoffset:0;stroke-width:0.6;"/>
    <path d="M 517.944458 173.58173 
L 336.66582 125.214499 
L 223.451544 212.23344 
" style="fill:none;stroke:#b0b0b0;stroke-dasharray:2.22,0.96;stroke-dashoffset:0;stroke-width:0.6;"/>
    <path d="M 518.650306 158.167823 
L 336.494617 110.326231 
L 222.689821 196.415771 
" style="fill:none;stroke:#b0b0b0;stroke-dasharray:2.22,0.96;stroke-dashoffset:0;stroke-width:0.6;"/>
    <path d="M 519.363085 142.602538 
L 336.321814 95.298899 
L 221.920325 180.436681 
" style="fill:none;stroke:#b0b0b0;stroke-dasharray:2.22,0.96;stroke-dashoffset:0;stroke-width:0.6;"/>
   </g>
   <g id="xtick_12">
    <g id="line2d_26">
     <path clip-path="url(#p71866a7a34)" d="M 373.495135 213.664865 
" style="fill:none;stroke:#b0b0b0;stroke-dasharray:2.22,0.96;stroke-dashoffset:0;stroke-opacity:0.7;stroke-width:0.6;"/>
    </g>
    <g id="line2d_27">
     <path d="M 513.029787 248.029429 
L 517.491215 249.310267 
" style="fill:none;stroke:#1a1a1a;stroke-linecap:square;stroke-width:0.8;"/>
    </g>
    <g id="text_12">
     <!-- −2.0 -->
     <g style="fill:#1a1a1a;" transform="translate(518.282385 254.988164)scale(0.12 -0.12)">
      <defs>
       <path d="M 684 794 
L 1344 794 
L 1344 0 
L 684 0 
L 684 794 
z
" id="DejaVuSans-2e" transform="scale(0.015625)"/>
      </defs>
      <use xlink:href="#DejaVuSans-2212"/>
      <use x="83.789062" xlink:href="#DejaVuSans-32"/>
      <use x="147.412109" xlink:href="#DejaVuSans-2e"/>
      <use x="179.199219" xlink:href="#DejaVuSans-30"/>
     </g>
    </g>
   </g>
   <g id="xtick_13">
    <g id="line2d_28">
     <path clip-path="url(#p71866a7a34)" d="M 373.495135 213.664865 
" style="fill:none;stroke:#b0b0b0;stroke-dasharray:2.22,0.96;stroke-dashoffset:0;stroke-opacity:0.7;stroke-width:0.6;"/>
    </g>
    <g id="line2d_29">
     <path d="M 513.695091 233.344118 
L 518.178616 234.613449 
" style="fill:none;stroke:#1a1a1a;stroke-linecap:square;stroke-width:0.8;"/>
    </g>
    <g id="text_13">
     <!-- −1.5 -->
     <g style="fill:#1a1a1a;" transform="translate(519.040666 240.322287)scale(0.12 -0.12)">
      <defs>
       <path d="M 691 4666 
L 3169 4666 
L 3169 4134 
L 1269 4134 
L 1269 2991 
Q 1406 3038 1543 3061 
Q 1681 3084 1819 3084 
Q 2600 3084 3056 2656 
Q 3513 2228 3513 1497 
Q 3513 744 3044 326 
Q 2575 -91 1722 -91 
Q 1428 -91 1123 -41 
Q 819 9 494 109 
L 494 744 
Q 775 591 1075 516 
Q 1375 441 1709 441 
Q 2250 441 2565 725 
Q 2881 1009 2881 1497 
Q 2881 1984 2565 2268 
Q 2250 2553 1709 2553 
Q 1456 2553 1204 2497 
Q 953 2441 691 2322 
L 691 4666 
z
" id="DejaVuSans-35" transform="scale(0.015625)"/>
      </defs>
      <use xlink:href="#DejaVuSans-2212"/>
      <use x="83.789062" xlink:href="#DejaVuSans-31"/>
      <use x="147.412109" xlink:href="#DejaVuSans-2e"/>
      <use x="179.199219" xlink:href="#DejaVuSans-35"/>
     </g>
    </g>
   </g>
   <g id="xtick_14">
    <g id="line2d_30">
     <path clip-path="url(#p71866a7a34)" d="M 373.495135 213.664865 
" style="fill:none;stroke:#b0b0b0;stroke-dasharray:2.22,0.96;stroke-dashoffset:0;stroke-opacity:0.7;stroke-width:0.6;"/>
    </g>
    <g id="line2d_31">
     <path d="M 514.366771 218.518097 
L 518.872611 219.77564 
" style="fill:none;stroke:#1a1a1a;stroke-linecap:square;stroke-width:0.8;"/>
    </g>
    <g id="text_14">
     <!-- −1.0 -->
     <g style="fill:#1a1a1a;" transform="translate(519.806198 225.516172)scale(0.12 -0.12)">
      <use xlink:href="#DejaVuSans-2212"/>
      <use x="83.789062" xlink:href="#DejaVuSans-31"/>
      <use x="147.412109" xlink:href="#DejaVuSans-2e"/>
      <use x="179.199219" xlink:href="#DejaVuSans-30"/>
     </g>
    </g>
   </g>
   <g id="xtick_15">
    <g id="line2d_32">
     <path clip-path="url(#p71866a7a34)" d="M 373.495135 213.664865 
" style="fill:none;stroke:#b0b0b0;stroke-dasharray:2.22,0.96;stroke-dashoffset:0;stroke-opacity:0.7;stroke-width:0.6;"/>
    </g>
    <g id="line2d_33">
     <path d="M 515.044917 203.549333 
L 519.573296 204.794802 
" style="fill:none;stroke:#1a1a1a;stroke-linecap:square;stroke-width:0.8;"/>
    </g>
    <g id="text_15">
     <!-- −0.5 -->
     <g style="fill:#1a1a1a;" transform="translate(520.579085 210.567796)scale(0.12 -0.12)">
      <use xlink:href="#DejaVuSans-2212"/>
      <use x="83.789062" xlink:href="#DejaVuSans-30"/>
      <use x="147.412109" xlink:href="#DejaVuSans-2e"/>
      <use x="179.199219" xlink:href="#DejaVuSans-35"/>
     </g>
    </g>
   </g>
   <g id="xtick_16">
    <g id="line2d_34">
     <path clip-path="url(#p71866a7a34)" d="M 373.495135 213.664865 
" style="fill:none;stroke:#b0b0b0;stroke-dasharray:2.22,0.96;stroke-dashoffset:0;stroke-opacity:0.7;stroke-width:0.6;"/>
    </g>
    <g id="line2d_35">
     <path d="M 515.729624 188.435755 
L 520.280768 189.668856 
" style="fill:none;stroke:#1a1a1a;stroke-linecap:square;stroke-width:0.8;"/>
    </g>
    <g id="text_16">
     <!-- 0.0 -->
     <g style="fill:#1a1a1a;" transform="translate(526.387246 195.475101)scale(0.12 -0.12)">
      <use xlink:href="#DejaVuSans-30"/>
      <use x="63.623047" xlink:href="#DejaVuSans-2e"/>
      <use x="95.410156" xlink:href="#DejaVuSans-30"/>
     </g>
    </g>
   </g>
   <g id="xtick_17">
    <g id="line2d_36">
     <path clip-path="url(#p71866a7a34)" d="M 373.495135 213.664865 
" style="fill:none;stroke:#b0b0b0;stroke-dasharray:2.22,0.96;stroke-dashoffset:0;stroke-opacity:0.7;stroke-width:0.6;"/>
    </g>
    <g id="line2d_37">
     <path d="M 516.420988 173.17525 
L 520.995126 174.395683 
" style="fill:none;stroke:#1a1a1a;stroke-linecap:square;stroke-width:0.8;"/>
    </g>
    <g id="text_17">
     <!-- 0.5 -->
     <g style="fill:#1a1a1a;" transform="translate(527.175165 180.235984)scale(0.12 -0.12)">
      <use xlink:href="#DejaVuSans-30"/>
      <use x="63.623047" xlink:href="#DejaVuSans-2e"/>
      <use x="95.410156" xlink:href="#DejaVuSans-35"/>
     </g>
    </g>
   </g>
   <g id="xtick_18">
    <g id="line2d_38">
     <path clip-path="url(#p71866a7a34)" d="M 373.495135 213.664865 
" style="fill:none;stroke:#b0b0b0;stroke-dasharray:2.22,0.96;stroke-dashoffset:0;stroke-opacity:0.7;stroke-width:0.6;"/>
    </g>
    <g id="line2d_39">
     <path d="M 517.119105 157.765667 
L 521.716472 158.973125 
" style="fill:none;stroke:#1a1a1a;stroke-linecap:square;stroke-width:0.8;"/>
    </g>
    <g id="text_18">
     <!-- 1.0 -->
     <g style="fill:#1a1a1a;" transform="translate(527.970766 164.848307)scale(0.12 -0.12)">
      <use xlink:href="#DejaVuSans-31"/>
      <use x="63.623047" xlink:href="#DejaVuSans-2e"/>
      <use x="95.410156" xlink:href="#DejaVuSans-30"/>
     </g>
    </g>
   </g>
   <g id="xtick_19">
    <g id="line2d_40">
     <path clip-path="url(#p71866a7a34)" d="M 373.495135 213.664865 
" style="fill:none;stroke:#b0b0b0;stroke-dasharray:2.22,0.96;stroke-dashoffset:0;stroke-opacity:0.7;stroke-width:0.6;"/>
    </g>
    <g id="line2d_41">
     <path d="M 517.824076 142.204809 
L 522.444907 143.398978 
" style="fill:none;stroke:#1a1a1a;stroke-linecap:square;stroke-width:0.8;"/>
    </g>
    <g id="text_19">
     <!-- 1.5 -->
     <g style="fill:#1a1a1a;" transform="translate(528.774161 149.309884)scale(0.12 -0.12)">
      <use xlink:href="#DejaVuSans-31"/>
      <use x="63.623047" xlink:href="#DejaVuSans-2e"/>
      <use x="95.410156" xlink:href="#DejaVuSans-35"/>
     </g>
    </g>
   </g>
  </g>
  <g id="axes_1">
   <g id="Path3DCollection_1">
    <path clip-path="url(#p71866a7a34)" d="M 344.404355 242.593957 
L 348.876491 238.121821 
M 344.404355 238.121821 
L 348.876491 242.593957 
" style="fill:#10a37f;fill-opacity:0.3;stroke:#10a37f;stroke-opacity:0.3;stroke-width:1.5;"/>
    <path clip-path="url(#p71866a7a34)" d="M 348.737356 147.988473 
L 353.209492 143.516337 
M 348.737356 143.516337 
L 353.209492 147.988473 
" style="fill:#10a37f;fill-opacity:0.303366;stroke:#10a37f;stroke-opacity:0.303366;stroke-width:1.5;"/>
    <path clip-path="url(#p71866a7a34)" d="M 372.341719 207.870777 
L 376.813855 203.398641 
M 372.341719 203.398641 
L 376.813855 207.870777 
" style="fill:#10a37f;fill-opacity:0.323987;stroke:#10a37f;stroke-opacity:0.323987;stroke-width:1.5;"/>
    <path clip-path="url(#p71866a7a34)" d="M 357.990525 251.174506 
L 362.462661 246.70237 
M 357.990525 246.70237 
L 362.462661 251.174506 
" style="fill:#10a37f;fill-opacity:0.337778;stroke:#10a37f;stroke-opacity:0.337778;stroke-width:1.5;"/>
    <path clip-path="url(#p71866a7a34)" d="M 392.226267 209.49314 
L 396.698403 205.021004 
M 392.226267 205.021004 
L 396.698403 209.49314 
" style="fill:#10a37f;fill-opacity:0.349068;stroke:#10a37f;stroke-opacity:0.349068;stroke-width:1.5;"/>
    <path clip-path="url(#p71866a7a34)" d="M 345.143278 205.774907 
L 349.615414 201.302771 
M 345.143278 201.302771 
L 349.615414 205.774907 
" style="fill:#10a37f;fill-opacity:0.358605;stroke:#10a37f;stroke-opacity:0.358605;stroke-width:1.5;"/>
    <path clip-path="url(#p71866a7a34)" d="M 320.250905 136.831443 
L 324.72304 132.359307 
M 320.250905 132.359307 
L 324.72304 136.831443 
" style="fill:#10a37f;fill-opacity:0.358999;stroke:#10a37f;stroke-opacity:0.358999;stroke-width:1.5;"/>
    <path clip-path="url(#p71866a7a34)" d="M 391.831461 191.869863 
L 396.303597 187.397727 
M 391.831461 187.397727 
L 396.303597 191.869863 
" style="fill:#10a37f;fill-opacity:0.36895;stroke:#10a37f;stroke-opacity:0.36895;stroke-width:1.5;"/>
    <path clip-path="url(#p71866a7a34)" d="M 415.997924 159.043364 
L 420.47006 154.571228 
M 415.997924 154.571228 
L 420.47006 159.043364 
" style="fill:#10a37f;fill-opacity:0.372039;stroke:#10a37f;stroke-opacity:0.372039;stroke-width:1.5;"/>
    <path clip-path="url(#p71866a7a34)" d="M 346.010901 259.46619 
L 350.483037 254.994054 
M 346.010901 254.994054 
L 350.483037 259.46619 
" style="fill:#10a37f;fill-opacity:0.397985;stroke:#10a37f;stroke-opacity:0.397985;stroke-width:1.5;"/>
    <path clip-path="url(#p71866a7a34)" d="M 379.179165 264.807219 
L 383.6513 260.335083 
M 379.179165 260.335083 
L 383.6513 264.807219 
" style="fill:#10a37f;fill-opacity:0.401441;stroke:#10a37f;stroke-opacity:0.401441;stroke-width:1.5;"/>
    <path clip-path="url(#p71866a7a34)" d="M 359.947352 195.305651 
L 364.419488 190.833515 
M 359.947352 190.833515 
L 364.419488 195.305651 
" style="fill:#10a37f;fill-opacity:0.402458;stroke:#10a37f;stroke-opacity:0.402458;stroke-width:1.5;"/>
    <path clip-path="url(#p71866a7a34)" d="M 322.117286 221.591906 
L 326.589422 217.11977 
M 322.117286 217.11977 
L 326.589422 221.591906 
" style="fill:#10a37f;fill-opacity:0.425509;stroke:#10a37f;stroke-opacity:0.425509;stroke-width:1.5;"/>
    <path clip-path="url(#p71866a7a34)" d="M 417.617261 185.726607 
L 422.089397 181.254471 
M 417.617261 181.254471 
L 422.089397 185.726607 
" style="fill:#10a37f;fill-opacity:0.427603;stroke:#10a37f;stroke-opacity:0.427603;stroke-width:1.5;"/>
    <path clip-path="url(#p71866a7a34)" d="M 335.78183 126.022738 
L 340.253966 121.550602 
M 335.78183 121.550602 
L 340.253966 126.022738 
" style="fill:#10a37f;fill-opacity:0.428905;stroke:#10a37f;stroke-opacity:0.428905;stroke-width:1.5;"/>
    <path clip-path="url(#p71866a7a34)" d="M 344.179882 241.328542 
L 348.652018 236.856407 
M 344.179882 236.856407 
L 348.652018 241.328542 
" style="fill:#10a37f;fill-opacity:0.431372;stroke:#10a37f;stroke-opacity:0.431372;stroke-width:1.5;"/>
    <path clip-path="url(#p71866a7a34)" d="M 373.790379 198.650711 
L 378.262515 194.178575 
M 373.790379 194.178575 
L 378.262515 198.650711 
" style="fill:#10a37f;fill-opacity:0.436822;stroke:#10a37f;stroke-opacity:0.436822;stroke-width:1.5;"/>
    <path clip-path="url(#p71866a7a34)" d="M 366.617561 204.97681 
L 371.089697 200.504674 
M 366.617561 200.504674 
L 371.089697 204.97681 
" style="fill:#10a37f;fill-opacity:0.443509;stroke:#10a37f;stroke-opacity:0.443509;stroke-width:1.5;"/>
    <path clip-path="url(#p71866a7a34)" d="M 346.952079 154.700587 
L 351.424215 150.228451 
M 346.952079 150.228451 
L 351.424215 154.700587 
" style="fill:#10a37f;fill-opacity:0.457789;stroke:#10a37f;stroke-opacity:0.457789;stroke-width:1.5;"/>
    <path clip-path="url(#p71866a7a34)" d="M 309.790738 191.078702 
L 314.262874 186.606566 
M 309.790738 186.606566 
L 314.262874 191.078702 
" style="fill:#10a37f;fill-opacity:0.460687;stroke:#10a37f;stroke-opacity:0.460687;stroke-width:1.5;"/>
    <path clip-path="url(#p71866a7a34)" d="M 360.724476 204.552951 
L 365.196612 200.080815 
M 360.724476 200.080815 
L 365.196612 204.552951 
" style="fill:#10a37f;fill-opacity:0.464906;stroke:#10a37f;stroke-opacity:0.464906;stroke-width:1.5;"/>
    <path clip-path="url(#p71866a7a34)" d="M 347.771128 252.9509 
L 352.243264 248.478764 
M 347.771128 248.478764 
L 352.243264 252.9509 
" style="fill:#10a37f;fill-opacity:0.465295;stroke:#10a37f;stroke-opacity:0.465295;stroke-width:1.5;"/>
    <path clip-path="url(#p71866a7a34)" d="M 342.496793 164.338365 
L 346.968929 159.866229 
M 342.496793 159.866229 
L 346.968929 164.338365 
" style="fill:#10a37f;fill-opacity:0.468681;stroke:#10a37f;stroke-opacity:0.468681;stroke-width:1.5;"/>
    <path clip-path="url(#p71866a7a34)" d="M 388.977895 223.399621 
L 393.450031 218.927485 
M 388.977895 218.927485 
L 393.450031 223.399621 
" style="fill:#10a37f;fill-opacity:0.469362;stroke:#10a37f;stroke-opacity:0.469362;stroke-width:1.5;"/>
    <path clip-path="url(#p71866a7a34)" d="M 392.666958 208.389996 
L 397.139094 203.91786 
M 392.666958 203.91786 
L 397.139094 208.389996 
" style="fill:#10a37f;fill-opacity:0.471654;stroke:#10a37f;stroke-opacity:0.471654;stroke-width:1.5;"/>
    <path clip-path="url(#p71866a7a34)" d="M 329.865765 210.76257 
L 334.337901 206.290434 
M 329.865765 206.290434 
L 334.337901 210.76257 
" style="fill:#10a37f;fill-opacity:0.473449;stroke:#10a37f;stroke-opacity:0.473449;stroke-width:1.5;"/>
    <path clip-path="url(#p71866a7a34)" d="M 354.816315 199.830132 
L 359.288451 195.357996 
M 354.816315 195.357996 
L 359.288451 199.830132 
" style="fill:#10a37f;fill-opacity:0.487827;stroke:#10a37f;stroke-opacity:0.487827;stroke-width:1.5;"/>
    <path clip-path="url(#p71866a7a34)" d="M 414.929613 257.49522 
L 419.401749 253.023084 
M 414.929613 253.023084 
L 419.401749 257.49522 
" style="fill:#10a37f;fill-opacity:0.497069;stroke:#10a37f;stroke-opacity:0.497069;stroke-width:1.5;"/>
    <path clip-path="url(#p71866a7a34)" d="M 379.199174 191.154048 
L 383.67131 186.681912 
M 379.199174 186.681912 
L 383.67131 191.154048 
" style="fill:#10a37f;fill-opacity:0.508851;stroke:#10a37f;stroke-opacity:0.508851;stroke-width:1.5;"/>
    <path clip-path="url(#p71866a7a34)" d="M 440.210138 187.771251 
L 444.682274 183.299115 
M 440.210138 183.299115 
L 444.682274 187.771251 
" style="fill:#10a37f;fill-opacity:0.512149;stroke:#10a37f;stroke-opacity:0.512149;stroke-width:1.5;"/>
    <path clip-path="url(#p71866a7a34)" d="M 383.649288 248.753172 
L 388.121424 244.281036 
M 383.649288 244.281036 
L 388.121424 248.753172 
" style="fill:#10a37f;fill-opacity:0.517223;stroke:#10a37f;stroke-opacity:0.517223;stroke-width:1.5;"/>
    <path clip-path="url(#p71866a7a34)" d="M 362.886993 184.738421 
L 367.359129 180.266285 
M 362.886993 180.266285 
L 367.359129 184.738421 
" style="fill:#10a37f;fill-opacity:0.520729;stroke:#10a37f;stroke-opacity:0.520729;stroke-width:1.5;"/>
    <path clip-path="url(#p71866a7a34)" d="M 298.101142 241.936575 
L 302.573278 237.464439 
M 298.101142 237.464439 
L 302.573278 241.936575 
" style="fill:#10a37f;fill-opacity:0.520969;stroke:#10a37f;stroke-opacity:0.520969;stroke-width:1.5;"/>
    <path clip-path="url(#p71866a7a34)" d="M 301.745457 210.466219 
L 306.217593 205.994083 
M 301.745457 205.994083 
L 306.217593 210.466219 
" style="fill:#10a37f;fill-opacity:0.523838;stroke:#10a37f;stroke-opacity:0.523838;stroke-width:1.5;"/>
    <path clip-path="url(#p71866a7a34)" d="M 395.954385 180.357119 
L 400.426521 175.884983 
M 395.954385 175.884983 
L 400.426521 180.357119 
" style="fill:#10a37f;fill-opacity:0.536525;stroke:#10a37f;stroke-opacity:0.536525;stroke-width:1.5;"/>
    <path clip-path="url(#p71866a7a34)" d="M 474.265681 188.397065 
L 478.737817 183.924929 
M 474.265681 183.924929 
L 478.737817 188.397065 
" style="fill:#10a37f;fill-opacity:0.552127;stroke:#10a37f;stroke-opacity:0.552127;stroke-width:1.5;"/>
    <path clip-path="url(#p71866a7a34)" d="M 380.749095 169.591886 
L 385.221231 165.11975 
M 380.749095 165.11975 
L 385.221231 169.591886 
" style="fill:#10a37f;fill-opacity:0.553569;stroke:#10a37f;stroke-opacity:0.553569;stroke-width:1.5;"/>
    <path clip-path="url(#p71866a7a34)" d="M 361.3583 177.022996 
L 365.830436 172.55086 
M 361.3583 172.55086 
L 365.830436 177.022996 
" style="fill:#10a37f;fill-opacity:0.562344;stroke:#10a37f;stroke-opacity:0.562344;stroke-width:1.5;"/>
    <path clip-path="url(#p71866a7a34)" d="M 405.748568 168.873536 
L 410.220704 164.4014 
M 405.748568 164.4014 
L 410.220704 168.873536 
" style="fill:#10a37f;fill-opacity:0.562975;stroke:#10a37f;stroke-opacity:0.562975;stroke-width:1.5;"/>
    <path clip-path="url(#p71866a7a34)" d="M 354.758931 205.427984 
L 359.231067 200.955848 
M 354.758931 200.955848 
L 359.231067 205.427984 
" style="fill:#10a37f;fill-opacity:0.569427;stroke:#10a37f;stroke-opacity:0.569427;stroke-width:1.5;"/>
    <path clip-path="url(#p71866a7a34)" d="M 348.680518 175.252532 
L 353.152654 170.780396 
M 348.680518 170.780396 
L 353.152654 175.252532 
" style="fill:#10a37f;fill-opacity:0.5725;stroke:#10a37f;stroke-opacity:0.5725;stroke-width:1.5;"/>
    <path clip-path="url(#p71866a7a34)" d="M 304.699686 175.227811 
L 309.171822 170.755675 
M 304.699686 170.755675 
L 309.171822 175.227811 
" style="fill:#10a37f;fill-opacity:0.580033;stroke:#10a37f;stroke-opacity:0.580033;stroke-width:1.5;"/>
    <path clip-path="url(#p71866a7a34)" d="M 388.669478 184.937876 
L 393.141614 180.46574 
M 388.669478 180.46574 
L 393.141614 184.937876 
" style="fill:#10a37f;fill-opacity:0.590233;stroke:#10a37f;stroke-opacity:0.590233;stroke-width:1.5;"/>
    <path clip-path="url(#p71866a7a34)" d="M 450.326127 148.099421 
L 454.798263 143.627285 
M 450.326127 143.627285 
L 454.798263 148.099421 
" style="fill:#10a37f;fill-opacity:0.592891;stroke:#10a37f;stroke-opacity:0.592891;stroke-width:1.5;"/>
    <path clip-path="url(#p71866a7a34)" d="M 369.252534 245.527428 
L 373.72467 241.055292 
M 369.252534 241.055292 
L 373.72467 245.527428 
" style="fill:#10a37f;fill-opacity:0.608532;stroke:#10a37f;stroke-opacity:0.608532;stroke-width:1.5;"/>
    <path clip-path="url(#p71866a7a34)" d="M 357.52393 202.659924 
L 361.996066 198.187788 
M 357.52393 198.187788 
L 361.996066 202.659924 
" style="fill:#10a37f;fill-opacity:0.608694;stroke:#10a37f;stroke-opacity:0.608694;stroke-width:1.5;"/>
    <path clip-path="url(#p71866a7a34)" d="M 384.244979 219.579711 
L 388.717115 215.107575 
M 384.244979 215.107575 
L 388.717115 219.579711 
" style="fill:#10a37f;fill-opacity:0.613393;stroke:#10a37f;stroke-opacity:0.613393;stroke-width:1.5;"/>
    <path clip-path="url(#p71866a7a34)" d="M 339.125863 213.797806 
L 343.597999 209.32567 
M 339.125863 209.32567 
L 343.597999 213.797806 
" style="fill:#10a37f;fill-opacity:0.614538;stroke:#10a37f;stroke-opacity:0.614538;stroke-width:1.5;"/>
    <path clip-path="url(#p71866a7a34)" d="M 332.60198 208.718023 
L 337.074116 204.245887 
M 332.60198 204.245887 
L 337.074116 208.718023 
" style="fill:#10a37f;fill-opacity:0.619377;stroke:#10a37f;stroke-opacity:0.619377;stroke-width:1.5;"/>
    <path clip-path="url(#p71866a7a34)" d="M 366.65502 249.990435 
L 371.127156 245.518299 
M 366.65502 245.518299 
L 371.127156 249.990435 
" style="fill:#10a37f;fill-opacity:0.634167;stroke:#10a37f;stroke-opacity:0.634167;stroke-width:1.5;"/>
    <path clip-path="url(#p71866a7a34)" d="M 412.758203 163.236296 
L 417.230339 158.76416 
M 412.758203 158.76416 
L 417.230339 163.236296 
" style="fill:#10a37f;fill-opacity:0.635703;stroke:#10a37f;stroke-opacity:0.635703;stroke-width:1.5;"/>
    <path clip-path="url(#p71866a7a34)" d="M 335.96821 206.155105 
L 340.440346 201.682969 
M 335.96821 201.682969 
L 340.440346 206.155105 
" style="fill:#10a37f;fill-opacity:0.636642;stroke:#10a37f;stroke-opacity:0.636642;stroke-width:1.5;"/>
    <path clip-path="url(#p71866a7a34)" d="M 384.125561 187.890871 
L 388.597697 183.418735 
M 384.125561 183.418735 
L 388.597697 187.890871 
" style="fill:#10a37f;fill-opacity:0.63966;stroke:#10a37f;stroke-opacity:0.63966;stroke-width:1.5;"/>
    <path clip-path="url(#p71866a7a34)" d="M 333.582242 186.882492 
L 338.054378 182.410356 
M 333.582242 182.410356 
L 338.054378 186.882492 
" style="fill:#10a37f;fill-opacity:0.645408;stroke:#10a37f;stroke-opacity:0.645408;stroke-width:1.5;"/>
    <path clip-path="url(#p71866a7a34)" d="M 332.658524 245.199833 
L 337.13066 240.727697 
M 332.658524 240.727697 
L 337.13066 245.199833 
" style="fill:#10a37f;fill-opacity:0.650558;stroke:#10a37f;stroke-opacity:0.650558;stroke-width:1.5;"/>
    <path clip-path="url(#p71866a7a34)" d="M 380.171547 224.53958 
L 384.643683 220.067444 
M 380.171547 220.067444 
L 384.643683 224.53958 
" style="fill:#10a37f;fill-opacity:0.654167;stroke:#10a37f;stroke-opacity:0.654167;stroke-width:1.5;"/>
    <path clip-path="url(#p71866a7a34)" d="M 338.345653 232.294454 
L 342.817789 227.822318 
M 338.345653 227.822318 
L 342.817789 232.294454 
" style="fill:#10a37f;fill-opacity:0.65638;stroke:#10a37f;stroke-opacity:0.65638;stroke-width:1.5;"/>
    <path clip-path="url(#p71866a7a34)" d="M 401.224427 242.169097 
L 405.696563 237.696961 
M 401.224427 237.696961 
L 405.696563 242.169097 
" style="fill:#10a37f;fill-opacity:0.663389;stroke:#10a37f;stroke-opacity:0.663389;stroke-width:1.5;"/>
    <path clip-path="url(#p71866a7a34)" d="M 313.311232 212.997276 
L 317.783368 208.52514 
M 313.311232 208.52514 
L 317.783368 212.997276 
" style="fill:#10a37f;fill-opacity:0.666448;stroke:#10a37f;stroke-opacity:0.666448;stroke-width:1.5;"/>
    <path clip-path="url(#p71866a7a34)" d="M 395.237365 238.457726 
L 399.709501 233.98559 
M 395.237365 233.98559 
L 399.709501 238.457726 
" style="fill:#10a37f;fill-opacity:0.679002;stroke:#10a37f;stroke-opacity:0.679002;stroke-width:1.5;"/>
    <path clip-path="url(#p71866a7a34)" d="M 394.772141 209.266715 
L 399.244277 204.794579 
M 394.772141 204.794579 
L 399.244277 209.266715 
" style="fill:#10a37f;fill-opacity:0.681673;stroke:#10a37f;stroke-opacity:0.681673;stroke-width:1.5;"/>
    <path clip-path="url(#p71866a7a34)" d="M 373.729347 194.608408 
L 378.201483 190.136272 
M 373.729347 190.136272 
L 378.201483 194.608408 
" style="fill:#10a37f;fill-opacity:0.687775;stroke:#10a37f;stroke-opacity:0.687775;stroke-width:1.5;"/>
    <path clip-path="url(#p71866a7a34)" d="M 331.906806 223.12406 
L 336.378942 218.651924 
M 331.906806 218.651924 
L 336.378942 223.12406 
" style="fill:#10a37f;fill-opacity:0.689161;stroke:#10a37f;stroke-opacity:0.689161;stroke-width:1.5;"/>
    <path clip-path="url(#p71866a7a34)" d="M 370.446405 216.849619 
L 374.918541 212.377483 
M 370.446405 212.377483 
L 374.918541 216.849619 
" style="fill:#10a37f;fill-opacity:0.690139;stroke:#10a37f;stroke-opacity:0.690139;stroke-width:1.5;"/>
    <path clip-path="url(#p71866a7a34)" d="M 424.771033 219.636716 
L 429.243169 215.16458 
M 424.771033 215.16458 
L 429.243169 219.636716 
" style="fill:#10a37f;fill-opacity:0.693666;stroke:#10a37f;stroke-opacity:0.693666;stroke-width:1.5;"/>
    <path clip-path="url(#p71866a7a34)" d="M 339.605016 173.832658 
L 344.077152 169.360522 
M 339.605016 169.360522 
L 344.077152 173.832658 
" style="fill:#10a37f;fill-opacity:0.695025;stroke:#10a37f;stroke-opacity:0.695025;stroke-width:1.5;"/>
    <path clip-path="url(#p71866a7a34)" d="M 332.400446 192.90983 
L 336.872582 188.437694 
M 332.400446 188.437694 
L 336.872582 192.90983 
" style="fill:#10a37f;fill-opacity:0.695423;stroke:#10a37f;stroke-opacity:0.695423;stroke-width:1.5;"/>
    <path clip-path="url(#p71866a7a34)" d="M 297.459647 216.630767 
L 301.931783 212.158631 
M 297.459647 212.158631 
L 301.931783 216.630767 
" style="fill:#10a37f;fill-opacity:0.695893;stroke:#10a37f;stroke-opacity:0.695893;stroke-width:1.5;"/>
    <path clip-path="url(#p71866a7a34)" d="M 371.979836 243.932405 
L 376.451972 239.460269 
M 371.979836 239.460269 
L 376.451972 243.932405 
" style="fill:#10a37f;fill-opacity:0.696634;stroke:#10a37f;stroke-opacity:0.696634;stroke-width:1.5;"/>
    <path clip-path="url(#p71866a7a34)" d="M 351.852607 202.479014 
L 356.324743 198.006878 
M 351.852607 198.006878 
L 356.324743 202.479014 
" style="fill:#10a37f;fill-opacity:0.698601;stroke:#10a37f;stroke-opacity:0.698601;stroke-width:1.5;"/>
    <path clip-path="url(#p71866a7a34)" d="M 313.547877 171.155331 
L 318.020013 166.683195 
M 313.547877 166.683195 
L 318.020013 171.155331 
" style="fill:#10a37f;fill-opacity:0.702866;stroke:#10a37f;stroke-opacity:0.702866;stroke-width:1.5;"/>
    <path clip-path="url(#p71866a7a34)" d="M 366.47469 233.463856 
L 370.946825 228.991721 
M 366.47469 228.991721 
L 370.946825 233.463856 
" style="fill:#10a37f;fill-opacity:0.706646;stroke:#10a37f;stroke-opacity:0.706646;stroke-width:1.5;"/>
    <path clip-path="url(#p71866a7a34)" d="M 363.142341 155.472533 
L 367.614477 151.000397 
M 363.142341 151.000397 
L 367.614477 155.472533 
" style="fill:#10a37f;fill-opacity:0.712809;stroke:#10a37f;stroke-opacity:0.712809;stroke-width:1.5;"/>
    <path clip-path="url(#p71866a7a34)" d="M 307.919609 254.309674 
L 312.391745 249.837538 
M 307.919609 249.837538 
L 312.391745 254.309674 
" style="fill:#10a37f;fill-opacity:0.7148;stroke:#10a37f;stroke-opacity:0.7148;stroke-width:1.5;"/>
    <path clip-path="url(#p71866a7a34)" d="M 381.482147 191.985052 
L 385.954283 187.512916 
M 381.482147 187.512916 
L 385.954283 191.985052 
" style="fill:#10a37f;fill-opacity:0.715509;stroke:#10a37f;stroke-opacity:0.715509;stroke-width:1.5;"/>
    <path clip-path="url(#p71866a7a34)" d="M 390.756098 174.423893 
L 395.228234 169.951757 
M 390.756098 169.951757 
L 395.228234 174.423893 
" style="fill:#10a37f;fill-opacity:0.719791;stroke:#10a37f;stroke-opacity:0.719791;stroke-width:1.5;"/>
    <path clip-path="url(#p71866a7a34)" d="M 340.55854 227.670596 
L 345.030676 223.19846 
M 340.55854 223.19846 
L 345.030676 227.670596 
" style="fill:#10a37f;fill-opacity:0.749768;stroke:#10a37f;stroke-opacity:0.749768;stroke-width:1.5;"/>
    <path clip-path="url(#p71866a7a34)" d="M 416.143981 234.381019 
L 420.616117 229.908883 
M 416.143981 229.908883 
L 420.616117 234.381019 
" style="fill:#10a37f;fill-opacity:0.770872;stroke:#10a37f;stroke-opacity:0.770872;stroke-width:1.5;"/>
    <path clip-path="url(#p71866a7a34)" d="M 357.32958 222.436289 
L 361.801716 217.964153 
M 357.32958 217.964153 
L 361.801716 222.436289 
" style="fill:#10a37f;fill-opacity:0.771938;stroke:#10a37f;stroke-opacity:0.771938;stroke-width:1.5;"/>
    <path clip-path="url(#p71866a7a34)" d="M 290.693065 235.229494 
L 295.165201 230.757358 
M 290.693065 230.757358 
L 295.165201 235.229494 
" style="fill:#10a37f;fill-opacity:0.77305;stroke:#10a37f;stroke-opacity:0.77305;stroke-width:1.5;"/>
    <path clip-path="url(#p71866a7a34)" d="M 401.970216 226.443552 
L 406.442352 221.971416 
M 401.970216 221.971416 
L 406.442352 226.443552 
" style="fill:#10a37f;fill-opacity:0.773313;stroke:#10a37f;stroke-opacity:0.773313;stroke-width:1.5;"/>
    <path clip-path="url(#p71866a7a34)" d="M 328.111571 225.601859 
L 332.583707 221.129723 
M 328.111571 221.129723 
L 332.583707 225.601859 
" style="fill:#10a37f;fill-opacity:0.774141;stroke:#10a37f;stroke-opacity:0.774141;stroke-width:1.5;"/>
    <path clip-path="url(#p71866a7a34)" d="M 295.882368 157.728809 
L 300.354503 153.256673 
M 295.882368 153.256673 
L 300.354503 157.728809 
" style="fill:#10a37f;fill-opacity:0.780754;stroke:#10a37f;stroke-opacity:0.780754;stroke-width:1.5;"/>
    <path clip-path="url(#p71866a7a34)" d="M 327.356545 239.083738 
L 331.828681 234.611602 
M 327.356545 234.611602 
L 331.828681 239.083738 
" style="fill:#10a37f;fill-opacity:0.785777;stroke:#10a37f;stroke-opacity:0.785777;stroke-width:1.5;"/>
    <path clip-path="url(#p71866a7a34)" d="M 343.943777 161.764864 
L 348.415913 157.292728 
M 343.943777 157.292728 
L 348.415913 161.764864 
" style="fill:#10a37f;fill-opacity:0.795978;stroke:#10a37f;stroke-opacity:0.795978;stroke-width:1.5;"/>
    <path clip-path="url(#p71866a7a34)" d="M 401.524007 191.43848 
L 405.996143 186.966344 
M 401.524007 186.966344 
L 405.996143 191.43848 
" style="fill:#10a37f;fill-opacity:0.816592;stroke:#10a37f;stroke-opacity:0.816592;stroke-width:1.5;"/>
    <path clip-path="url(#p71866a7a34)" d="M 336.126725 217.581824 
L 340.598861 213.109688 
M 336.126725 213.109688 
L 340.598861 217.581824 
" style="fill:#10a37f;fill-opacity:0.81921;stroke:#10a37f;stroke-opacity:0.81921;stroke-width:1.5;"/>
    <path clip-path="url(#p71866a7a34)" d="M 383.493247 222.000843 
L 387.965383 217.528707 
M 383.493247 217.528707 
L 387.965383 222.000843 
" style="fill:#10a37f;fill-opacity:0.834457;stroke:#10a37f;stroke-opacity:0.834457;stroke-width:1.5;"/>
    <path clip-path="url(#p71866a7a34)" d="M 427.656968 201.664226 
L 432.129104 197.19209 
M 427.656968 197.19209 
L 432.129104 201.664226 
" style="fill:#10a37f;fill-opacity:0.851883;stroke:#10a37f;stroke-opacity:0.851883;stroke-width:1.5;"/>
    <path clip-path="url(#p71866a7a34)" d="M 404.936139 250.738476 
L 409.408275 246.26634 
M 404.936139 246.26634 
L 409.408275 250.738476 
" style="fill:#10a37f;fill-opacity:0.85281;stroke:#10a37f;stroke-opacity:0.85281;stroke-width:1.5;"/>
    <path clip-path="url(#p71866a7a34)" d="M 329.176221 169.28077 
L 333.648357 164.808634 
M 329.176221 164.808634 
L 333.648357 169.28077 
" style="fill:#10a37f;fill-opacity:0.864212;stroke:#10a37f;stroke-opacity:0.864212;stroke-width:1.5;"/>
    <path clip-path="url(#p71866a7a34)" d="M 428.399963 181.004666 
L 432.872099 176.53253 
M 428.399963 176.53253 
L 432.872099 181.004666 
" style="fill:#10a37f;fill-opacity:0.883809;stroke:#10a37f;stroke-opacity:0.883809;stroke-width:1.5;"/>
    <path clip-path="url(#p71866a7a34)" d="M 291.651575 229.782337 
L 296.123711 225.310201 
M 291.651575 225.310201 
L 296.123711 229.782337 
" style="fill:#10a37f;fill-opacity:0.889291;stroke:#10a37f;stroke-opacity:0.889291;stroke-width:1.5;"/>
    <path clip-path="url(#p71866a7a34)" d="M 415.228026 232.853488 
L 419.700162 228.381352 
M 415.228026 228.381352 
L 419.700162 232.853488 
" style="fill:#10a37f;fill-opacity:0.894198;stroke:#10a37f;stroke-opacity:0.894198;stroke-width:1.5;"/>
    <path clip-path="url(#p71866a7a34)" d="M 352.719276 251.010024 
L 357.191412 246.537888 
M 352.719276 246.537888 
L 357.191412 251.010024 
" style="fill:#10a37f;fill-opacity:0.905927;stroke:#10a37f;stroke-opacity:0.905927;stroke-width:1.5;"/>
    <path clip-path="url(#p71866a7a34)" d="M 372.639234 221.010821 
L 377.111369 216.538685 
M 372.639234 216.538685 
L 377.111369 221.010821 
" style="fill:#10a37f;fill-opacity:0.912831;stroke:#10a37f;stroke-opacity:0.912831;stroke-width:1.5;"/>
    <path clip-path="url(#p71866a7a34)" d="M 354.533462 169.448557 
L 359.005598 164.976421 
M 354.533462 164.976421 
L 359.005598 169.448557 
" style="fill:#10a37f;fill-opacity:0.927841;stroke:#10a37f;stroke-opacity:0.927841;stroke-width:1.5;"/>
    <path clip-path="url(#p71866a7a34)" d="M 267.73087 201.125077 
L 272.203006 196.652941 
M 267.73087 196.652941 
L 272.203006 201.125077 
" style="fill:#10a37f;fill-opacity:0.946561;stroke:#10a37f;stroke-opacity:0.946561;stroke-width:1.5;"/>
    <path clip-path="url(#p71866a7a34)" d="M 405.548519 205.502938 
L 410.020655 201.030802 
M 405.548519 201.030802 
L 410.020655 205.502938 
" style="fill:#10a37f;fill-opacity:0.948501;stroke:#10a37f;stroke-opacity:0.948501;stroke-width:1.5;"/>
    <path clip-path="url(#p71866a7a34)" d="M 435.404578 244.454312 
L 439.876714 239.982176 
M 435.404578 239.982176 
L 439.876714 244.454312 
" style="fill:#10a37f;stroke:#10a37f;stroke-width:1.5;"/>
   </g>
  </g>
 </g>
 <defs>
  <clipPath id="p71866a7a34">
   <rect height="332.64" width="332.64" x="202.68" y="51.84"/>
  </clipPath>
 </defs>
</svg>
